<?xml version="1.0" encoding="iso-8859-1"?>
<!-- Uploaded to: SVG Repo, www.svgrepo.com, Generator: SVG Repo Mixer Tools -->
<svg height="800px" width="800px" version="1.1" id="Layer_1" xmlns="http://www.w3.org/2000/svg" xmlns:xlink="http://www.w3.org/1999/xlink" 
	 viewBox="0 0 512 512" xml:space="preserve">
<g>
	<path style="fill:#ED1C24;" d="M256,82.752c-95.536,0-173.248,77.712-173.248,173.248S160.464,429.248,256,429.248
		S429.248,351.536,429.248,256S351.536,82.752,256,82.752z M256,366.784l-59.952-103.84H244V145.216h24v117.728h47.952L256,366.784z
		"/>
	<path style="fill:#ED1C24;" d="M256,0C114.608,0,0,114.608,0,256s114.608,256,256,256s256-114.608,256-256S397.392,0,256,0z
		 M256,453.248c-108.928,0-197.248-88.32-197.248-197.248c0-108.944,88.32-197.248,197.248-197.248S453.248,147.056,453.248,256
		C453.248,364.928,364.928,453.248,256,453.248z"/>
</g>
<g>
	<path style="fill:#FFFFFF;" d="M256,58.752C147.072,58.752,58.752,147.056,58.752,256c0,108.928,88.304,197.248,197.248,197.248
		S453.248,364.928,453.248,256C453.248,147.056,364.928,58.752,256,58.752z M256,429.248c-95.536,0-173.248-77.712-173.248-173.248
		S160.464,82.752,256,82.752S429.248,160.464,429.248,256S351.536,429.248,256,429.248z"/>
	<polygon style="fill:#FFFFFF;" points="268,145.216 244,145.216 244,262.944 196.048,262.944 256,366.784 315.952,262.944 
		268,262.944 	"/>
</g>
</svg>