<?xml version="1.0" encoding="utf-8"?>
<!-- Generator: Adobe Illustrator 25.0.1, SVG Export Plug-In . SVG Version: 6.00 Build 0)  -->
<svg version="1.0" id="katman_1" xmlns="http://www.w3.org/2000/svg" xmlns:xlink="http://www.w3.org/1999/xlink" x="0px" y="0px"
	 viewBox="0 0 126.3 80" style="enable-background:new 0 0 126.3 80;" xml:space="preserve">
<style type="text/css">
	.st0{fill-rule:evenodd;clip-rule:evenodd;fill:#C8102E;}
</style>
<g>
	<path class="st0" d="M25,35.3c0.5,1.7,0.5,3.3,0.5,3.3c1.5-2.1,3-3.9,4.9-5.5c2.1-1.7,3.6-2.7,6.3-3.9c2.4-1.1,3.6-1.4,4.8-1.8
		c1.2-0.4,2.4-0.7,3.7-1c1.3-0.3,2.5-0.5,2.5-0.2c0,0.2-1.4,0.7-1.6,0.8c-1,0.4-1.9,0.8-4,1.7c-2.5,1.2-4.3,2.5-6.4,4.2
		c-1.9,1.5-3.7,3.7-5.3,5.8C30,39.3,28.9,40.6,28,42c-0.8,1.3-1.6,2.7-1.8,3.1c-0.5,0.8-1.4,2.8-1.4,2.8s0.8,0.3,2.3,0.2
		c1.7-0.1,3-0.3,5.2-1.4c2.4-1.2,4.1-2.7,5.8-4.6c1.7-1.8,2.9-3.2,4.4-5.5c1-1.5,1.7-2.5,3-5.1c0.8-1.6,1.1-3.3,1.4-3.4
		c0.3-0.1,0.3,1.6,0.1,3.1c-0.5,3.6-0.9,4.6-2,6.9c-0.8,1.7-2,3.5-3.6,5.1c-1.7,1.7-3.1,3-5.4,4.4c-1.6,1.1-2.8,1.6-4.6,2.1
		c-2,0.6-4.3,0.5-5.2,0.4c-0.8-0.1-1.5-0.2-2.3-0.4c-0.4,0.6-1,2.7-1.2,3.5c-0.2,0.8-0.6,1.8-0.8,2.1c-0.3,0.6-0.8,1-1.1,0.8
		c-0.8-0.3-1.1-1-1.3-1.9c-0.2-1.4-0.1-3,0.1-3.8c0.2-1.2,0.7-2.7,0.7-2.7c-0.4-0.4-1.7-1.6-3.1-4.3c-1.2-2.1-2.1-4.9-2.1-7.7
		c0-3,0.7-5.9,2-8.6c0.7-1.3,1.2-2.1,1.7-2.8c0.5-0.8,1.1-1.6,1.1-1.6c0.1,0,1.5,2.7,2.8,5.9C24.2,32.2,24.6,33.4,25,35.3z
		 M28.6,27.2c-0.7,0.5-0.8,0.7-1.2,1.1c-0.5,0.5-0.5,0.9-0.5,1.5c0,0.2,0.1,0.5,0.2,0.7c0.3,0.5,0.8,0.8,1.4,0.8
		c0.3,0,1-0.3,1.6-1.1c0.6-0.8,0.8-1.1,0.8-1.5c0-0.3-0.1-0.7-0.5-1.1C30,27.1,29.1,26.8,28.6,27.2L28.6,27.2z M19.9,24.1
		c0,0-0.3,0.8-0.7,1.7c-0.6,1.3-1.4,3.2-1.8,4.8c-0.6,2.2-1.1,5.5-0.4,8c0.3,1,0.5,1.8,0.9,2.7c0.7,1.5,1.6,3,3.4,4.7
		c0,0,0.6-0.8,0.8-2.2c0.1-0.8,0.1-1,0.2-1.7c0.1-1,0.1-2.1,0.1-3.4c0.1-1.6-0.1-3.5-0.5-5.9c-0.2-1.3-0.6-3.7-1-5
		C20.5,26.3,19.9,24.1,19.9,24.1z M75.5,53.5c-1.3,1.2-3,1.9-4.7,1.9c-1.5,0-3-0.5-4.2-1.5c-1.6-1.2-2.4-3-2.4-5
		c0-1.7,0.7-3.3,2-4.6c1.3-1.2,2.9-1.9,4.7-1.9c1.7,0,3.5,0.7,4.7,1.9c1.3,1.2,1.9,2.8,1.9,4.6C77.5,50.7,76.8,52.3,75.5,53.5z
		 M74.1,49c0-2-1.4-3.6-3.3-3.6c-1.9,0-3.3,1.6-3.3,3.6c0,2,1.3,3.6,3.3,3.6C72.8,52.6,74.1,51,74.1,49z M78.7,42.8h3.7
		c1.7,0,3,0,4.1,0.8c0.9,0.7,1.4,1.7,1.4,3c0,1.9-1,3.1-2.8,3.5l3.4,4.9h-3.8l-2.9-4.8v4.8h-3.2L78.7,42.8
		C78.7,42.8,78.7,42.8,78.7,42.8z M82.5,48.6c1.4,0,2.1-0.4,2.1-1.5c0-1.3-0.7-1.7-2.1-1.7h-0.7v3.2L82.5,48.6L82.5,48.6L82.5,48.6z
		 M89.8,55.1V42.8h3.8c1.6,0,2.8,0,3.8,0.6c1.1,0.7,1.7,2,1.7,3.5c0,1.6-0.6,2.9-1.7,3.5c-0.9,0.5-1.8,0.5-3,0.5H93v4.1L89.8,55.1
		L89.8,55.1z M93.6,48.3c1.5,0,2.2-0.3,2.2-1.5c0-1.2-0.8-1.4-2.2-1.4H93v2.9L93.6,48.3L93.6,48.3L93.6,48.3z M104,52.8
		c0.9,0,1.5-0.5,1.5-1.3c0-1-0.7-1.3-2.1-1.6c-2.2-0.6-3.3-1.5-3.3-3.4c0-2.3,1.7-4,4.3-4c1.4,0,2.6,0.4,3.7,1.1L107,46
		c-0.8-0.6-1.6-1-2.4-1c-0.8,0-1.4,0.4-1.4,1c0,0.9,0.9,1.1,2,1.4c2.2,0.6,3.4,1.4,3.4,3.7c0,2.6-1.8,4.3-4.8,4.3
		c-1.7,0-3.1-0.5-4.4-1.8l1.5-2.5C102,52.2,103,52.8,104,52.8z M58.1,52.6c-2,0-3.2-1.3-3.3-3.6c0.1-2.3,1.3-3.6,3.3-3.6
		c1.1,0,2,0.5,2.7,1.4l2.9-1.4c-1.3-1.9-3.2-2.8-5.6-2.8c-3.8,0-6.6,2.7-6.6,6.4c0,3.7,2.8,6.4,6.6,6.4c2.4,0,4.3-1,5.6-2.8
		l-2.9-1.4C60,52.1,59.2,52.6,58.1,52.6L58.1,52.6z M62,39.9v-8c-0.2,1.1-0.4,1.8-0.6,2.3l-1.7,5.8h-2.3l-1.7-5.8
		c-0.1-0.5-0.4-1.2-0.6-2.3v8H52V27.6h4.3l1.9,6.4c0.1,0.4,0.3,0.9,0.4,1.7c0.1-0.6,0.2-1.1,0.4-1.7l1.9-6.3h4.3v12.3L62,39.9
		C62,39.9,62,39.9,62,39.9z M67.1,27.6h7.6v2.7h-4.3v2.1h4.1V35h-4.1v2.1h4.3v2.8h-7.6L67.1,27.6L67.1,27.6z M76.4,27.6h3.7
		c1.7,0,3,0,4.1,0.8c0.9,0.7,1.4,1.7,1.4,3c0,1.9-1,3.1-2.8,3.5l3.4,4.9h-3.8L79.6,35v4.8h-3.2L76.4,27.6L76.4,27.6L76.4,27.6z
		 M80.3,33.4c1.4,0,2.1-0.4,2.1-1.5c0-1.3-0.7-1.7-2.1-1.7h-0.7v3.2L80.3,33.4L80.3,33.4z M93.3,37.3c-1.9,0-3.2-1.3-3.3-3.6
		c0.1-2.3,1.3-3.6,3.3-3.6c1.1,0,2,0.5,2.7,1.4l2.9-1.4c-1.3-1.9-3.2-2.8-5.6-2.8c-3.8,0-6.6,2.7-6.6,6.4c0,3.7,2.8,6.4,6.6,6.4
		c2.4,0,4.3-1,5.6-2.8L96,36C95.3,36.9,94.4,37.3,93.3,37.3z"/>
	<path class="st0" d="M99.7,40.1h3.8l7.5-12.5h-3.8l-2.2,3.7l-2.7-3.7h-3.7l4.7,6.6L99.7,40.1z"/>
</g>
</svg>
